<?xml version="1.0" standalone="no"?>
<!DOCTYPE svg PUBLIC "-//W3C//DTD SVG 20010904//EN"
 "http://www.w3.org/TR/2001/REC-SVG-20010904/DTD/svg10.dtd">
<svg version="1.0" xmlns="http://www.w3.org/2000/svg"
 width="3837.000000pt" height="3837.000000pt" viewBox="0 0 3837.000000 3837.000000"
 preserveAspectRatio="xMidYMid meet">
<metadata>
Created by potrace 1.14, written by Peter Selinger 2001-2017
</metadata>
<g transform="translate(0.000000,3837.000000) scale(0.100000,-0.100000)"
fill="#000000" stroke="none">
<path d="M10029 38366 c-2 -2 -69 -6 -149 -10 -80 -4 -158 -8 -175 -11 -16 -2
-66 -7 -110 -10 -44 -2 -90 -7 -102 -9 -12 -3 -53 -7 -90 -11 -37 -3 -84 -8
-103 -11 -19 -3 -46 -7 -60 -9 -14 -2 -47 -7 -75 -11 -27 -3 -59 -8 -70 -11
-11 -2 -38 -6 -60 -9 -34 -5 -257 -48 -305 -59 -8 -2 -49 -11 -90 -20 -85 -18
-80 -17 -180 -43 -155 -42 -197 -54 -285 -82 -126 -41 -264 -91 -370 -134 -49
-21 -94 -38 -100 -40 -38 -11 -322 -149 -425 -206 -224 -124 -469 -291 -645
-439 -229 -192 -532 -533 -650 -732 -148 -249 -207 -369 -280 -564 -62 -164
-123 -399 -149 -565 -3 -14 -7 -43 -11 -66 -6 -39 -10 -73 -20 -194 -9 -102
-3 -515 9 -587 3 -15 8 -59 12 -98 3 -38 7 -74 9 -80 1 -5 5 -28 9 -50 4 -22
11 -60 16 -85 6 -25 12 -56 14 -70 40 -214 186 -562 326 -773 275 -418 649
-736 1205 -1028 95 -49 161 -81 400 -188 234 -106 827 -304 1230 -411 79 -21
346 -88 375 -95 15 -3 311 -73 340 -80 8 -2 60 -13 115 -25 55 -12 141 -30
190 -41 50 -11 169 -35 265 -54 96 -19 195 -39 220 -44 25 -6 56 -13 70 -15
14 -3 36 -8 50 -11 14 -3 39 -8 55 -10 34 -6 541 -123 595 -137 19 -5 53 -14
75 -19 87 -21 296 -83 405 -118 342 -113 539 -214 672 -344 110 -107 156 -214
162 -378 4 -77 1 -105 -18 -199 -10 -48 -76 -166 -121 -218 -80 -90 -221 -180
-364 -232 -95 -35 -252 -78 -310 -85 -24 -3 -47 -8 -51 -10 -3 -2 -35 -7 -71
-11 -35 -3 -66 -8 -69 -9 -3 -2 -66 -7 -140 -11 -302 -18 -746 -5 -1035 30
-16 2 -57 7 -90 11 -33 4 -100 13 -150 21 -49 7 -108 16 -130 20 -62 9 -286
53 -325 64 -19 5 -51 12 -70 15 -83 14 -431 111 -610 172 -443 148 -839 322
-1234 540 -244 135 -280 157 -539 327 -119 77 -152 95 -163 85 -14 -11 -128
-128 -221 -225 -26 -28 -140 -147 -253 -264 -113 -117 -221 -230 -240 -250
-19 -20 -120 -125 -225 -234 -104 -109 -214 -223 -244 -254 -29 -31 -106 -111
-170 -177 -64 -67 -172 -179 -240 -250 -69 -72 -169 -176 -224 -233 -56 -58
-96 -107 -91 -111 5 -5 70 -53 144 -108 659 -487 1405 -870 2250 -1155 207
-69 663 -202 768 -223 9 -2 53 -12 97 -23 44 -12 116 -28 160 -37 44 -9 87
-18 95 -20 8 -2 49 -10 90 -18 78 -17 86 -18 185 -36 33 -6 74 -13 90 -16 17
-3 91 -14 165 -25 74 -12 145 -24 156 -28 21 -7 17 -16 -78 -212 -55 -113
-122 -250 -148 -305 -26 -55 -98 -203 -160 -330 -62 -126 -138 -284 -170 -350
-32 -66 -104 -214 -160 -330 -267 -547 -427 -878 -515 -1060 -34 -71 -109
-224 -165 -340 -56 -115 -133 -273 -170 -350 -73 -151 -196 -405 -332 -685
-47 -96 -119 -245 -161 -330 -41 -85 -117 -243 -170 -350 -52 -107 -126 -260
-165 -340 -66 -136 -127 -264 -337 -695 -48 -99 -125 -258 -171 -352 -46 -95
-123 -253 -170 -350 -100 -207 -211 -436 -323 -665 -43 -90 -114 -235 -157
-323 -43 -88 -79 -162 -79 -165 -1 -3 -44 -93 -97 -200 -52 -107 -130 -267
-173 -355 -42 -88 -116 -239 -162 -335 -258 -530 -303 -622 -303 -624 0 -2
821 -3 1824 -3 l1824 0 23 51 c21 48 161 353 244 531 20 44 42 94 50 110 21
48 60 134 105 230 23 50 77 167 120 260 95 207 111 243 239 519 55 120 101
223 101 227 0 5 3 10 8 10 30 5 712 3 712 -2 0 -4 -9 -24 -20 -46 -11 -21 -63
-128 -116 -238 -53 -110 -139 -288 -192 -395 -52 -107 -127 -262 -167 -345
-40 -82 -113 -234 -163 -336 -123 -254 -242 -498 -317 -654 -35 -71 -107 -220
-160 -330 -54 -110 -132 -272 -175 -360 -139 -287 -236 -487 -319 -657 -45
-92 -82 -171 -82 -175 -1 -5 -10 -20 -20 -35 -10 -14 -19 -29 -19 -34 0 -4
-25 -59 -56 -123 -206 -422 -408 -838 -496 -1021 -34 -69 -113 -231 -176 -360
-63 -129 -138 -284 -167 -345 -59 -123 -175 -364 -317 -655 -53 -107 -130
-267 -173 -355 -95 -196 -218 -450 -337 -695 -50 -102 -121 -249 -159 -327
-37 -78 -112 -231 -165 -340 -125 -257 -228 -469 -324 -668 -160 -332 -234
-480 -241 -485 -4 -3 -170 -5 -368 -5 -236 0 -361 -3 -362 -10 0 -5 -1 -343
-1 -750 -1 -847 12 -734 -112 -983 -42 -85 -76 -159 -76 -166 0 -9 26 -12 92
-12 l93 1 0 -4493 0 -4492 30 -1 c39 0 3416 0 3432 0 9 1 12 487 12 2039 0
1120 0 2051 0 2068 l1 32 2223 -2 2222 -1 0 -2067 0 -2068 80 -1 c101 0 3366
0 3380 0 7 1 10 39 10 102 0 55 2 102 5 103 3 2 50 -11 105 -29 55 -18 134
-43 175 -55 76 -23 399 -106 448 -115 15 -2 70 -14 122 -25 52 -11 109 -23
125 -26 17 -2 55 -9 85 -14 110 -20 166 -29 225 -36 22 -3 51 -7 65 -9 42 -8
261 -34 330 -40 36 -3 81 -7 100 -10 419 -48 1423 -48 1920 0 19 2 67 6 105 9
39 4 79 8 90 10 11 2 54 7 95 11 41 4 82 8 90 10 8 1 40 6 70 10 30 4 92 13
136 20 45 8 103 17 130 20 39 5 311 58 419 81 11 2 29 6 40 8 11 2 49 12 85
21 36 9 72 19 80 20 115 26 456 132 595 184 60 23 110 41 112 41 2 0 3 -67 3
-150 0 -113 3 -150 13 -151 6 0 1490 -1 3297 -1 2878 -1 3625 3 3770 17 19 2
80 6 135 10 55 4 116 8 135 10 19 2 67 6 105 10 39 3 77 8 85 10 8 2 45 7 82
10 37 3 75 7 85 9 10 2 45 7 78 10 66 8 93 12 175 26 30 5 71 12 90 15 558 93
1149 280 1560 493 115 60 291 161 311 178 8 8 19 14 23 14 12 0 168 114 281
204 91 73 304 278 365 351 277 333 451 687 534 1090 27 134 32 164 43 280 10
105 10 467 0 575 -13 128 -13 132 -21 180 -4 25 -10 59 -12 75 -8 51 -63 268
-85 334 -74 227 -211 478 -368 676 -55 68 -227 247 -306 316 -105 91 -318 239
-493 341 -269 156 -724 342 -1115 455 l-69 19 119 49 c948 386 1537 982 1732
1751 51 203 75 399 75 624 0 110 -10 298 -18 350 -3 14 -7 43 -10 65 -13 87
-18 114 -46 228 -17 65 -46 162 -66 215 -38 103 -146 326 -170 353 -8 8 -14
19 -14 23 0 4 -30 51 -67 104 -184 268 -428 500 -756 718 -70 46 -135 88 -145
91 -9 4 -48 26 -87 48 -38 23 -89 50 -112 61 -48 21 -52 29 -24 44 11 5 25 16
33 23 7 7 42 35 78 62 77 59 89 69 194 160 130 112 163 143 300 280 363 364
667 783 892 1225 54 107 144 298 144 306 0 3 8 24 19 47 83 188 232 672 265
862 6 34 11 60 31 165 8 41 17 98 20 125 3 28 7 57 10 65 2 8 7 47 10 85 4 39
9 84 11 100 22 208 31 553 20 765 -13 224 -21 333 -30 405 -3 28 -8 73 -11
100 -4 28 -10 73 -15 100 -5 28 -12 66 -14 85 -11 71 -25 147 -41 220 -16 74
-21 95 -29 135 -10 48 -52 193 -103 354 -181 568 -473 1096 -862 1561 -119
142 -104 125 -195 219 l-69 71 39 1 c21 0 333 0 692 1 l652 0 1 72 c0 39 0
2093 0 4564 l1 4492 31 1 c18 0 105 1 195 1 89 1 162 3 162 5 0 3 -87 116
-194 253 l-194 248 0 630 c0 347 -2 634 -5 639 -3 4 -228 8 -500 7 l-495 -1
-114 145 c-62 80 -131 168 -153 197 -22 29 -86 110 -142 181 -56 71 -197 251
-313 399 -116 149 -222 284 -235 300 -13 17 -62 80 -110 140 -47 61 -94 120
-103 132 -9 12 -60 76 -112 143 -52 67 -141 181 -198 253 l-104 131 39 18 c21
10 110 47 197 84 142 58 407 185 509 243 20 11 54 30 74 42 156 88 446 289
568 393 495 421 814 878 1010 1446 31 90 74 242 91 321 19 92 45 232 50 274 3
28 7 61 9 75 28 176 34 626 10 855 -2 28 -7 77 -10 110 -5 53 -12 101 -29 195
-34 198 -91 420 -141 555 -19 51 -35 95 -35 99 0 23 -147 322 -208 424 -98
161 -101 166 -176 267 -192 257 -429 490 -720 708 -50 38 -99 75 -109 83 -9 8
-19 14 -21 14 -2 0 -36 22 -77 49 -83 54 -209 131 -215 131 -2 0 -45 23 -95
50 -80 45 -386 189 -414 195 -5 1 -23 8 -40 14 -184 76 -418 151 -695 222
-135 35 -330 77 -475 103 -16 3 -43 8 -58 12 -16 3 -38 7 -50 9 -48 6 -185 26
-203 29 -10 2 -48 7 -84 11 -36 3 -76 8 -90 10 -62 10 -208 24 -300 30 -41 3
-97 7 -125 10 -27 3 -99 7 -160 10 -60 3 -173 8 -250 11 -102 5 -14837 9
-15016 5 l-27 -1 0 -106 c-1 -59 -3 -109 -6 -111 -3 -3 -69 13 -148 35 -154
44 -331 92 -363 98 -30 6 -296 64 -325 71 -14 3 -29 7 -35 8 -15 4 -207 37
-230 40 -11 2 -33 6 -50 9 -42 8 -141 24 -200 32 -27 3 -57 8 -65 9 -9 2 -43
6 -75 10 -33 4 -71 9 -85 11 -14 2 -54 6 -90 10 -36 3 -76 7 -90 9 -39 6 -128
14 -205 20 -38 3 -90 7 -115 10 -42 4 -141 11 -305 21 -84 6 -961 14 -966 10z
m611 -2520 c14 -2 68 -7 120 -11 52 -3 109 -8 125 -10 17 -2 48 -6 70 -9 251
-32 678 -118 885 -180 25 -8 65 -19 90 -26 105 -29 477 -157 625 -215 385
-151 764 -337 1106 -541 59 -35 111 -64 115 -64 5 0 18 13 29 28 68 94 578
712 588 713 7 0 625 1 1375 2 1204 2 1362 0 1363 -13 3 -45 4 -6438 1 -6451
-3 -14 -86 -16 -847 -16 -752 0 -843 2 -837 15 3 9 23 48 44 86 169 306 297
710 333 1046 4 30 8 61 10 68 6 16 18 256 19 347 0 82 -12 325 -20 387 -25
208 -48 322 -100 500 -19 65 -48 152 -65 194 -32 82 -133 289 -153 314 -6 8
-20 32 -30 52 -10 20 -27 46 -37 57 -11 11 -19 23 -19 26 0 11 -110 155 -174
228 -192 220 -373 375 -641 551 -93 61 -179 116 -190 122 -213 117 -362 193
-480 244 -27 12 -63 29 -80 37 -16 8 -64 28 -105 44 -41 16 -84 34 -95 38
-137 61 -560 204 -860 290 -183 53 -716 191 -793 205 -15 3 -70 14 -122 26
-125 28 -433 92 -510 106 -129 24 -443 86 -475 94 -22 5 -65 14 -95 20 -30 6
-73 15 -95 20 -22 5 -103 23 -180 41 -391 88 -798 206 -960 279 -271 121 -422
236 -488 373 -25 50 -54 153 -55 190 -3 88 -2 186 2 202 20 94 57 170 118 243
87 104 218 189 386 251 45 17 86 31 90 32 4 1 12 3 17 4 81 24 242 51 365 62
36 3 67 7 69 9 6 6 530 -4 561 -10z m17490 -289 c30 -3 91 -9 135 -12 44 -4
87 -8 95 -10 8 -3 33 -7 55 -10 177 -25 402 -84 525 -136 113 -48 260 -129
331 -182 270 -201 414 -453 454 -798 8 -62 8 -283 1 -315 -2 -12 -7 -44 -11
-72 -3 -29 -14 -80 -25 -114 -97 -335 -335 -595 -689 -755 -42 -19 -85 -38
-96 -43 -60 -29 -325 -104 -405 -115 -24 -4 -47 -8 -50 -10 -3 -2 -34 -6 -70
-10 -36 -3 -72 -8 -80 -10 -8 -2 -55 -7 -105 -11 -111 -9 -2584 -8 -2593 0 -8
9 -9 2577 -1 2596 6 14 146 15 1241 14 678 0 1258 -4 1288 -7z m-6043 -26 l22
-1 -2 -3237 -2 -3238 -750 -1 -751 -1 2 3236 c1 1780 2 3238 3 3241 1 4 1378
5 1478 1z m5206 -5205 c105 -138 266 -348 357 -468 91 -119 233 -305 315 -413
83 -109 185 -243 228 -299 42 -55 91 -119 107 -141 17 -22 57 -74 88 -115 32
-41 101 -131 153 -200 586 -770 964 -1266 969 -1270 3 -3 29 -37 58 -77 l53
-72 60 2 c33 2 65 -1 71 -4 8 -5 11 -329 12 -1153 1 -1012 -1 -1146 -14 -1147
-19 -1 -4423 -1 -4430 0 -9 2 -6 2289 3 2297 4 4 63 8 130 8 l122 1 2 1635 c1
899 2 1642 2 1651 1 16 62 17 761 17 l761 0 192 -252z m-10165 -3930 c3 -4 6
-1098 6 -2431 1 -1333 -2 -2421 -6 -2417 -7 8 -67 127 -133 267 -24 50 -95
198 -160 330 -65 132 -137 281 -160 330 -23 50 -91 189 -150 310 -104 213
-173 355 -315 650 -37 77 -110 228 -162 335 -53 107 -127 260 -166 340 -38 80
-109 226 -157 325 -48 99 -120 248 -160 330 -40 83 -107 222 -150 310 -43 88
-106 219 -140 290 -34 72 -106 220 -160 330 -54 110 -132 272 -175 360 -43 88
-98 201 -122 252 -36 73 -42 93 -30 95 32 6 2333 0 2340 -6z m4697 5 c20 -1
20 -7 20 -3156 0 -2096 -3 -3155 -10 -3156 -5 0 -117 -1 -247 -1 -131 -1 -238
-4 -239 -7 0 -3 -1 -47 -2 -98 -1 -50 -5 -94 -8 -98 -4 -3 -33 1 -65 9 -33 8
-70 17 -84 20 -259 47 -371 67 -445 77 -49 7 -94 13 -100 14 -5 1 -17 3 -25 3
-14 2 -16 329 -16 3195 l0 3192 41 5 c30 4 1072 4 1180 1z m-10019 -972 c25
-57 57 -129 71 -159 14 -30 31 -69 39 -86 7 -16 27 -61 45 -100 17 -38 78
-175 136 -304 58 -129 113 -253 123 -275 10 -22 48 -107 85 -190 80 -179 94
-209 135 -300 18 -38 48 -106 67 -150 44 -100 68 -152 105 -235 17 -36 67
-148 113 -250 96 -213 121 -269 180 -400 24 -52 71 -158 105 -235 34 -77 77
-173 96 -213 19 -40 34 -77 34 -82 0 -6 -509 -10 -1395 -10 -767 0 -1395 3
-1395 6 0 3 122 274 271 603 149 328 280 616 291 641 52 114 178 391 203 445
15 33 42 92 60 130 458 1010 579 1274 582 1272 1 -2 23 -50 49 -108z m17952
-3156 c7 -12 8 -2780 1 -2788 -4 -3 -188 61 -244 86 -67 29 -576 182 -681 205
-7 1 -61 14 -120 29 -60 14 -136 33 -169 40 -95 22 -405 81 -520 99 -16 2 -75
11 -130 20 -55 8 -138 20 -185 26 -47 6 -101 13 -120 15 -19 3 -59 7 -87 10
-29 2 -65 7 -80 9 -29 5 -126 14 -228 22 -33 3 -85 7 -115 9 -30 2 -104 7
-165 11 -60 3 -141 8 -180 10 -38 2 -371 6 -740 9 -368 2 -672 4 -675 5 -4 0
-6 2195 -1 2195 3327 2 4433 -1 4439 -12z m-16188 -2187 c-7 -7 -13 -7 -20 0
-6 6 -3 10 10 10 13 0 16 -4 10 -10z m95 5 c-8 -7 -45 -9 -50 -1 -2 3 9 6 25
6 17 0 27 -2 25 -5z m75 3 c0 -8 -19 -13 -24 -6 -3 5 1 9 9 9 8 0 15 -2 15 -3z
m40 0 c0 -8 -19 -13 -24 -6 -3 5 1 9 9 9 8 0 15 -2 15 -3z m40 0 c0 -8 -19
-13 -24 -6 -3 5 1 9 9 9 8 0 15 -2 15 -3z m70 -8 c-7 -7 -13 -7 -20 0 -6 6 -3
10 10 10 13 0 16 -4 10 -10z m95 5 c-8 -7 -45 -9 -50 -1 -2 3 9 6 25 6 17 0
27 -2 25 -5z m75 3 c0 -8 -19 -13 -24 -6 -3 5 1 9 9 9 8 0 15 -2 15 -3z m5385
-2627 c17 -3 59 -8 95 -11 36 -3 74 -8 85 -10 11 -2 43 -7 70 -10 131 -18 403
-89 510 -134 361 -152 593 -371 716 -677 11 -28 46 -153 54 -195 25 -134 26
-385 1 -513 -117 -609 -684 -989 -1571 -1053 -129 -9 -265 -12 -265 -5 0 3
-513 5 -1140 5 l-1140 -2 0 1302 c0 717 3 1305 6 1309 8 8 2538 2 2579 -6z
m7100 -71 c39 -3 104 -8 145 -11 103 -8 368 -38 435 -50 103 -18 341 -71 430
-96 61 -16 127 -34 148 -40 110 -27 465 -174 594 -245 279 -154 434 -266 626
-450 208 -201 368 -422 490 -679 27 -55 52 -108 58 -117 5 -10 9 -23 9 -29 0
-6 6 -25 14 -42 31 -66 94 -286 112 -387 2 -14 7 -36 9 -50 8 -40 12 -62 19
-113 4 -27 9 -57 11 -67 24 -123 24 -752 0 -790 -2 -3 -6 -28 -9 -55 -3 -28
-10 -72 -16 -100 -5 -27 -11 -61 -14 -75 -9 -55 -48 -191 -84 -300 -158 -466
-442 -847 -867 -1166 -258 -194 -684 -398 -1022 -490 -29 -8 -79 -21 -110 -30
-32 -9 -69 -18 -82 -20 -12 -3 -51 -11 -85 -19 -33 -8 -77 -17 -96 -20 -19 -3
-57 -10 -85 -15 -27 -5 -63 -12 -80 -15 -45 -7 -252 -34 -320 -40 -33 -4 -85
-9 -115 -12 -30 -3 -460 -7 -955 -10 l-900 -5 2 2749 c1 1511 2 2759 2 2773
l1 26 833 -2 c457 -1 864 -4 902 -8z m-14670 -1161 c76 -170 150 -337 165
-370 15 -33 85 -188 155 -345 147 -329 206 -459 247 -550 17 -36 47 -103 68
-150 21 -47 47 -105 58 -130 36 -77 342 -758 402 -895 32 -71 74 -166 95 -210
20 -44 37 -84 38 -90 1 -6 -515 -9 -1395 -10 -769 0 -1398 1 -1398 1 0 4 36
88 61 142 17 35 63 136 103 225 109 240 123 271 152 335 15 31 50 109 79 172
86 190 96 212 127 280 17 36 47 103 68 150 21 47 54 119 73 160 40 85 150 326
207 455 12 28 38 82 56 122 19 39 34 73 34 76 0 3 20 47 44 98 24 52 101 220
171 374 70 154 142 312 160 350 17 39 40 89 50 112 16 37 20 40 30 25 6 -9 74
-156 150 -327z m6462 -3754 c20 -1 205 -239 1062 -1366 151 -199 303 -399 381
-500 56 -73 220 -288 404 -530 75 -99 142 -187 149 -195 7 -9 31 -40 53 -70
113 -149 477 -626 483 -633 4 -4 132 -8 285 -9 l277 -2 -4 -2255 c-2 -1241 -6
-2268 -10 -2284 -3 -15 -8 -55 -12 -90 -23 -219 -101 -502 -195 -702 -181
-389 -450 -668 -825 -855 -255 -127 -507 -202 -785 -235 -25 -3 -55 -7 -66 -9
-55 -11 -245 -20 -399 -20 -229 0 -371 10 -545 40 -14 2 -45 7 -70 10 -25 3
-49 8 -53 11 -5 3 -23 7 -40 10 -62 9 -273 75 -381 119 -135 55 -232 107 -356
190 -89 59 -270 211 -315 265 -11 13 -40 49 -65 79 -25 30 -48 57 -51 60 -4 3
-31 43 -61 90 -96 148 -180 323 -232 482 -36 110 -55 177 -65 228 -6 30 -14
66 -17 80 -11 49 -32 197 -39 265 -4 39 -9 81 -12 95 -9 40 -11 4414 -2 4425
5 7 326 10 944 10 515 0 940 2 945 5 4 3 -37 97 -92 210 -55 113 -126 259
-158 325 -32 66 -97 201 -145 300 -48 99 -116 239 -150 310 -34 72 -111 229
-170 350 -59 121 -131 270 -160 330 -29 61 -91 189 -138 285 -46 96 -116 240
-155 320 -38 80 -110 228 -159 330 -171 351 -253 521 -253 525 0 8 115 10 635
8 297 -1 550 -2 562 -2z m-4979 -1363 c-3 -9 -65 -12 -244 -13 -131 0 -244 -3
-249 -7 -7 -4 -10 -692 -10 -2042 l0 -2036 -2225 0 -2225 0 2 1105 1 1106 22
47 c24 49 63 133 124 265 20 43 36 80 36 82 0 1 20 45 44 96 54 117 65 141
301 654 106 231 210 456 230 500 42 91 81 175 101 223 l14 32 2041 0 c1599 0
2040 -3 2037 -12z m14687 -2452 c551 -59 898 -208 1081 -462 101 -141 144
-285 145 -484 1 -148 -22 -254 -81 -375 -45 -92 -63 -117 -145 -199 -172 -171
-511 -311 -855 -351 -30 -4 -66 -8 -80 -10 -166 -24 -336 -27 -1475 -26 -616
0 -1134 0 -1150 0 l-30 1 1 958 c1 526 2 958 3 959 2 4 2548 -7 2586 -11z
m290 -4030 c290 -15 511 -53 745 -128 91 -28 273 -118 346 -170 206 -144 318
-323 353 -558 53 -354 -81 -663 -373 -859 -175 -117 -470 -223 -716 -256 -25
-3 -56 -8 -70 -10 -81 -14 -301 -29 -410 -27 -47 1 -686 2 -1420 3 l-1335 2 1
1001 c1 551 2 1003 3 1006 2 7 2734 3 2876 -4z"/>
</g>
</svg>
